<svg width="23" height="31" viewBox="0 0 23 31" fill="none" xmlns="http://www.w3.org/2000/svg">
<path d="M2.65385 30.0122H20.3462C21.8095 30.0122 23 28.8289 23 27.3744V8.79263H16.8077C15.3443 8.79263 14.1538 7.60938 14.1538 6.15484V0H2.65385C1.19046 0 0 1.18325 0 2.63779V27.3744C0 28.8289 1.19046 30.0122 2.65385 30.0122ZM6.19231 12.3683H16.8077C17.2966 12.3683 17.6923 12.7616 17.6923 13.2476C17.6923 13.7336 17.2966 14.1268 16.8077 14.1268H6.19231C5.70335 14.1268 5.30769 13.7336 5.30769 13.2476C5.30769 12.7616 5.70335 12.3683 6.19231 12.3683ZM6.19231 15.8854H16.8077C17.2966 15.8854 17.6923 16.2786 17.6923 16.7646C17.6923 17.2506 17.2966 17.6439 16.8077 17.6439H6.19231C5.70335 17.6439 5.30769 17.2506 5.30769 16.7646C5.30769 16.2786 5.70335 15.8854 6.19231 15.8854ZM6.19231 19.4024H16.8077C17.2966 19.4024 17.6923 19.7957 17.6923 20.2817C17.6923 20.7677 17.2966 21.1609 16.8077 21.1609H6.19231C5.70335 21.1609 5.30769 20.7677 5.30769 20.2817C5.30769 19.7957 5.70335 19.4024 6.19231 19.4024ZM6.19231 22.9195H13.2692C13.7582 22.9195 14.1538 23.3127 14.1538 23.7987C14.1538 24.2847 13.7582 24.678 13.2692 24.678H6.19231C5.70335 24.678 5.30769 24.2847 5.30769 23.7987C5.30769 23.3127 5.70335 22.9195 6.19231 22.9195Z" fill="#0D808B"/>
<path d="M16.615 7.01225H22.4387L15.707 0.561035V6.14212C15.707 6.6222 16.114 7.01225 16.615 7.01225Z" fill="#0D808B"/>
</svg>
