<svg width="155" height="89" viewBox="0 0 155 89" fill="none" xmlns="http://www.w3.org/2000/svg">
<path d="M85.7268 54.4579C83.1965 54.4565 80.7235 53.7049 78.6203 52.2982C76.517 50.8916 74.878 48.8929 73.9104 46.5549C72.9428 44.217 72.69 41.6446 73.184 39.1631C73.678 36.6815 74.8966 34.4021 76.6858 32.6129C78.4749 30.8237 80.7544 29.6051 83.236 29.1111C85.7175 28.6171 88.2899 28.8699 90.6278 29.8376C92.9658 30.8052 94.9644 32.4441 96.3711 34.5473C97.7777 36.6506 98.5293 39.1236 98.5308 41.6539V54.5175" stroke="#0D858D" stroke-width="5.97717" stroke-miterlimit="10" stroke-linecap="round"/>
<path d="M42.1499 0.171463V53.9585" stroke="#0D858D" stroke-width="5.97717" stroke-linecap="round" stroke-linejoin="round"/>
<path d="M61.7951 29.1555L55.0503 37.7486C54.017 39.0639 53.4728 40.6973 53.5109 42.3695C53.549 44.0417 54.1669 45.6487 55.2589 46.9156L61.7951 54.5175" stroke="#0D858D" stroke-width="5.97717" stroke-linecap="round" stroke-linejoin="round"/>
<path d="M112.072 0.171463V54.5771" stroke="#0D858D" stroke-width="5.97717" stroke-linecap="round" stroke-linejoin="round"/>
<path d="M138.343 54.5026C140.878 54.5011 143.355 53.7483 145.462 52.3392C147.569 50.93 149.211 48.9279 150.18 46.5859C151.15 44.2438 151.403 41.667 150.908 39.1811C150.413 36.6951 149.193 34.4118 147.4 32.6194C145.608 30.8271 143.325 29.6064 140.839 29.1116C138.353 28.6167 135.776 28.8699 133.434 29.8392C131.092 30.8085 129.09 32.4504 127.681 34.5574C126.271 36.6643 125.519 39.1416 125.517 41.6763V85.4766" stroke="#0D858D" stroke-width="5.97717" stroke-miterlimit="10" stroke-linecap="round"/>
<path d="M15.8263 28.7307C13.2895 28.7307 10.8097 29.4829 8.70041 30.8923C6.59113 32.3017 4.94715 34.3049 3.97635 36.6486C3.00556 38.9923 2.75155 41.5713 3.24646 44.0593C3.74137 46.5474 4.96296 48.8328 6.75675 50.6266C8.55054 52.4204 10.836 53.642 13.324 54.1369C15.8121 54.6318 18.391 54.3778 20.7348 53.407C23.0785 52.4362 25.0817 50.7922 26.491 48.683C27.9004 46.5737 28.6527 44.0938 28.6527 41.557V0" stroke="#FDBB44" stroke-width="5.97717" stroke-miterlimit="10" stroke-linecap="round"/>
</svg>
