<svg width="973" height="284" viewBox="0 0 973 284" fill="none" xmlns="http://www.w3.org/2000/svg">
<path d="M44.3688 65.1511V36.3934H57.3056C58.624 36.3934 59.8051 36.6132 60.8488 37.0526C61.92 37.4646 62.8264 38.0689 63.568 38.8655C64.3096 39.6345 64.8727 40.5684 65.2572 41.6671C65.6417 42.7657 65.834 43.9743 65.834 45.2927C65.834 46.6385 65.6417 47.8608 65.2572 48.9595C64.8727 50.0307 64.3096 50.9646 63.568 51.7611C62.8264 52.5302 61.92 53.1344 60.8488 53.5739C59.8051 53.9859 58.624 54.1919 57.3056 54.1919H49.8072V65.1511H44.3688ZM49.8072 49.4951H56.8112C57.8549 49.4951 58.6789 49.2204 59.2832 48.6711C59.8875 48.0943 60.1896 47.284 60.1896 46.2403V44.3451C60.1896 43.3013 59.8875 42.5048 59.2832 41.9555C58.6789 41.4061 57.8549 41.1315 56.8112 41.1315H49.8072V49.4951ZM88.1902 52.9971H76.201V65.1511H70.7626V36.3934H76.201V48.1767H88.1902V36.3934H93.6286V65.1511H88.1902V52.9971ZM118.174 65.1511L115.866 57.8175H105.649L103.383 65.1511H97.8619L107.503 36.3934H114.26L123.818 65.1511H118.174ZM110.84 41.3375H110.634L106.967 53.1619H114.548L110.84 41.3375ZM136.997 65.6455C134.525 65.6455 132.424 65.2061 130.693 64.3271C128.99 63.4482 127.521 62.2946 126.285 60.8663L129.952 57.3231C130.94 58.4767 132.039 59.3556 133.248 59.9599C134.484 60.5642 135.843 60.8663 137.327 60.8663C139.002 60.8663 140.265 60.5092 141.117 59.7951C141.968 59.0535 142.394 58.0647 142.394 56.8287C142.394 55.8674 142.119 55.0846 141.57 54.4803C141.021 53.876 139.991 53.4366 138.48 53.1619L135.761 52.7499C130.02 51.8435 127.15 49.0556 127.15 44.3863C127.15 43.0953 127.384 41.928 127.85 40.8843C128.345 39.8405 129.045 38.9479 129.952 38.2062C130.858 37.4646 131.943 36.9016 133.206 36.517C134.497 36.105 135.953 35.899 137.574 35.899C139.744 35.899 141.639 36.2561 143.259 36.9702C144.88 37.6844 146.267 38.7418 147.421 40.1427L143.713 43.6447C142.998 42.7657 142.133 42.0516 141.117 41.5023C140.101 40.9529 138.823 40.6783 137.285 40.6783C135.72 40.6783 134.539 40.9804 133.742 41.5847C132.973 42.1615 132.588 42.9855 132.588 44.0567C132.588 45.1553 132.904 45.9656 133.536 46.4875C134.168 47.0093 135.184 47.3939 136.585 47.6411L139.263 48.1355C142.174 48.6573 144.317 49.5912 145.69 50.9371C147.091 52.2555 147.791 54.1095 147.791 56.4991C147.791 57.8724 147.544 59.1222 147.05 60.2483C146.583 61.347 145.882 62.3083 144.949 63.1323C144.042 63.9289 142.916 64.5469 141.57 64.9863C140.252 65.4258 138.727 65.6455 136.997 65.6455ZM153.243 65.1511V36.3934H172.195V41.2139H158.682V48.1767H170.63V52.9971H158.682V60.3307H172.195V65.1511H153.243ZM188.055 65.1511V60.7427H195.965V40.3075H195.594L189.332 47.7235L185.954 44.8807L193.081 36.3934H201.28V60.7427H207.872V65.1511H188.055Z" fill="white" fill-opacity="0.2"/>
<path d="M283.486 65.1511V36.3934H296.423C297.741 36.3934 298.922 36.6132 299.966 37.0526C301.037 37.4646 301.943 38.0689 302.685 38.8655C303.427 39.6345 303.99 40.5684 304.374 41.6671C304.759 42.7657 304.951 43.9743 304.951 45.2927C304.951 46.6385 304.759 47.8608 304.374 48.9595C303.99 50.0307 303.427 50.9646 302.685 51.7611C301.943 52.5302 301.037 53.1344 299.966 53.5739C298.922 53.9859 297.741 54.1919 296.423 54.1919H288.924V65.1511H283.486ZM288.924 49.4951H295.928C296.972 49.4951 297.796 49.2204 298.4 48.6711C299.004 48.0943 299.307 47.284 299.307 46.2403V44.3451C299.307 43.3013 299.004 42.5048 298.4 41.9555C297.796 41.4061 296.972 41.1315 295.928 41.1315H288.924V49.4951ZM327.307 52.9971H315.318V65.1511H309.88V36.3934H315.318V48.1767H327.307V36.3934H332.746V65.1511H327.307V52.9971ZM357.291 65.1511L354.983 57.8175H344.766L342.5 65.1511H336.979L346.62 36.3934H353.377L362.935 65.1511H357.291ZM349.957 41.3375H349.751L346.084 53.1619H353.665L349.957 41.3375ZM376.114 65.6455C373.642 65.6455 371.541 65.2061 369.81 64.3271C368.107 63.4482 366.638 62.2946 365.402 60.8663L369.069 57.3231C370.057 58.4767 371.156 59.3556 372.365 59.9599C373.601 60.5642 374.96 60.8663 376.443 60.8663C378.119 60.8663 379.382 60.5092 380.234 59.7951C381.085 59.0535 381.511 58.0647 381.511 56.8287C381.511 55.8674 381.236 55.0846 380.687 54.4803C380.138 53.876 379.108 53.4366 377.597 53.1619L374.878 52.7499C369.137 51.8435 366.267 49.0556 366.267 44.3863C366.267 43.0953 366.5 41.928 366.967 40.8843C367.462 39.8405 368.162 38.9479 369.069 38.2062C369.975 37.4646 371.06 36.9016 372.323 36.517C373.614 36.105 375.07 35.899 376.691 35.899C378.861 35.899 380.756 36.2561 382.376 36.9702C383.997 37.6844 385.384 38.7418 386.537 40.1427L382.829 43.6447C382.115 42.7657 381.25 42.0516 380.234 41.5023C379.218 40.9529 377.94 40.6783 376.402 40.6783C374.837 40.6783 373.656 40.9804 372.859 41.5847C372.09 42.1615 371.705 42.9855 371.705 44.0567C371.705 45.1553 372.021 45.9656 372.653 46.4875C373.285 47.0093 374.301 47.3939 375.702 47.6411L378.38 48.1355C381.291 48.6573 383.434 49.5912 384.807 50.9371C386.208 52.2555 386.908 54.1095 386.908 56.4991C386.908 57.8724 386.661 59.1222 386.167 60.2483C385.7 61.347 384.999 62.3083 384.065 63.1323C383.159 63.9289 382.033 64.5469 380.687 64.9863C379.369 65.4258 377.844 65.6455 376.114 65.6455ZM392.36 65.1511V36.3934H411.312V41.2139H397.799V48.1767H409.747V52.9971H397.799V60.3307H411.312V65.1511H392.36ZM445.918 65.1511H425.977V60.1247L435 52.2143C436.538 50.8684 437.664 49.6599 438.378 48.5887C439.092 47.49 439.449 46.3089 439.449 45.0455V44.5099C439.449 43.2464 439.037 42.2851 438.213 41.6259C437.389 40.9392 436.387 40.5959 435.206 40.5959C433.723 40.5959 432.596 41.0216 431.827 41.8731C431.058 42.6971 430.509 43.6996 430.179 44.8807L425.483 43.0679C425.785 42.1065 426.21 41.2001 426.76 40.3487C427.309 39.4697 427.996 38.7007 428.82 38.0414C429.671 37.3822 430.66 36.8604 431.786 36.4758C432.912 36.0913 434.203 35.899 435.659 35.899C437.17 35.899 438.515 36.1188 439.697 36.5582C440.878 36.9702 441.866 37.5608 442.663 38.3298C443.487 39.0989 444.105 40.0053 444.517 41.0491C444.956 42.0928 445.176 43.2327 445.176 44.4687C445.176 45.6772 444.984 46.7759 444.599 47.7647C444.215 48.7535 443.693 49.7011 443.034 50.6075C442.375 51.4864 441.605 52.3379 440.727 53.1619C439.848 53.9584 438.914 54.7687 437.925 55.5927L431.869 60.5779H445.918V65.1511Z" fill="white" fill-opacity="0.2"/>
<path d="M628.817 65.1511V36.3934H641.754C643.072 36.3934 644.253 36.6132 645.297 37.0526C646.368 37.4646 647.275 38.0689 648.016 38.8655C648.758 39.6345 649.321 40.5684 649.705 41.6671C650.09 42.7657 650.282 43.9743 650.282 45.2927C650.282 46.6385 650.09 47.8608 649.705 48.9595C649.321 50.0307 648.758 50.9646 648.016 51.7611C647.275 52.5302 646.368 53.1344 645.297 53.5739C644.253 53.9859 643.072 54.1919 641.754 54.1919H634.255V65.1511H628.817ZM634.255 49.4951H641.259C642.303 49.4951 643.127 49.2204 643.731 48.6711C644.336 48.0943 644.638 47.284 644.638 46.2403V44.3451C644.638 43.3013 644.336 42.5048 643.731 41.9555C643.127 41.4061 642.303 41.1315 641.259 41.1315H634.255V49.4951ZM672.638 52.9971H660.649V65.1511H655.211V36.3934H660.649V48.1767H672.638V36.3934H678.077V65.1511H672.638V52.9971ZM702.622 65.1511L700.315 57.8175H690.097L687.831 65.1511H682.31L691.951 36.3934H698.708L708.266 65.1511H702.622ZM695.288 41.3375H695.082L691.415 53.1619H698.996L695.288 41.3375ZM721.445 65.6455C718.973 65.6455 716.872 65.2061 715.142 64.3271C713.439 63.4482 711.969 62.2946 710.733 60.8663L714.4 57.3231C715.389 58.4767 716.487 59.3556 717.696 59.9599C718.932 60.5642 720.292 60.8663 721.775 60.8663C723.45 60.8663 724.714 60.5092 725.565 59.7951C726.417 59.0535 726.842 58.0647 726.842 56.8287C726.842 55.8674 726.568 55.0846 726.018 54.4803C725.469 53.876 724.439 53.4366 722.928 53.1619L720.209 52.7499C714.469 51.8435 711.598 49.0556 711.598 44.3863C711.598 43.0953 711.832 41.928 712.299 40.8843C712.793 39.8405 713.494 38.9479 714.4 38.2062C715.306 37.4646 716.391 36.9016 717.655 36.517C718.946 36.105 720.401 35.899 722.022 35.899C724.192 35.899 726.087 36.2561 727.708 36.9702C729.328 37.6844 730.715 38.7418 731.869 40.1427L728.161 43.6447C727.447 42.7657 726.581 42.0516 725.565 41.5023C724.549 40.9529 723.272 40.6783 721.734 40.6783C720.168 40.6783 718.987 40.9804 718.19 41.5847C717.421 42.1615 717.037 42.9855 717.037 44.0567C717.037 45.1553 717.353 45.9656 717.984 46.4875C718.616 47.0093 719.632 47.3939 721.033 47.6411L723.711 48.1355C726.623 48.6573 728.765 49.5912 730.138 50.9371C731.539 52.2555 732.24 54.1095 732.24 56.4991C732.24 57.8724 731.992 59.1222 731.498 60.2483C731.031 61.347 730.331 62.3083 729.397 63.1323C728.49 63.9289 727.364 64.5469 726.018 64.9863C724.7 65.4258 723.176 65.6455 721.445 65.6455ZM737.692 65.1511V36.3934H756.644V41.2139H743.13V48.1767H755.078V52.9971H743.13V60.3307H756.644V65.1511H737.692ZM779.548 48.0119C781.196 48.0119 782.405 47.6823 783.174 47.0231C783.97 46.3364 784.369 45.4712 784.369 44.4275V44.1391C784.369 42.958 783.984 42.0379 783.215 41.3787C782.473 40.692 781.443 40.3487 780.125 40.3487C778.862 40.3487 777.735 40.6508 776.747 41.2551C775.785 41.8593 774.948 42.7108 774.233 43.8095L770.773 40.6783C771.267 40.0191 771.803 39.4011 772.379 38.8242C772.984 38.22 773.67 37.7118 774.439 37.2998C775.208 36.8604 776.074 36.517 777.035 36.2698C777.996 36.0226 779.081 35.899 780.29 35.899C781.746 35.899 783.064 36.0776 784.245 36.4346C785.454 36.7642 786.484 37.2586 787.335 37.9178C788.214 38.5771 788.887 39.3736 789.354 40.3075C789.821 41.2139 790.054 42.2439 790.054 43.3975C790.054 44.3313 789.903 45.1691 789.601 45.9107C789.326 46.6523 788.928 47.2977 788.406 47.8471C787.912 48.3964 787.321 48.8496 786.635 49.2067C785.975 49.5363 785.275 49.7835 784.533 49.9483V50.1955C785.357 50.3603 786.14 50.6212 786.882 50.9783C787.623 51.3354 788.255 51.816 788.777 52.4203C789.326 52.9971 789.752 53.6838 790.054 54.4803C790.384 55.2768 790.549 56.1832 790.549 57.1995C790.549 58.463 790.288 59.6166 789.766 60.6603C789.271 61.704 788.557 62.5967 787.623 63.3383C786.69 64.0799 785.577 64.6567 784.286 65.0687C782.995 65.4533 781.553 65.6455 779.96 65.6455C778.559 65.6455 777.323 65.4945 776.252 65.1923C775.181 64.9177 774.233 64.5331 773.409 64.0387C772.613 63.5443 771.912 62.9813 771.308 62.3495C770.704 61.6903 770.182 61.0036 769.743 60.2895L773.739 57.2407C774.069 57.8175 774.426 58.3531 774.81 58.8475C775.195 59.3144 775.634 59.7264 776.129 60.0835C776.623 60.4406 777.186 60.7152 777.818 60.9075C778.45 61.0998 779.164 61.1959 779.96 61.1959C781.553 61.1959 782.776 60.8114 783.627 60.0423C784.479 59.2732 784.904 58.2158 784.904 56.8699V56.5815C784.904 55.2631 784.437 54.2606 783.503 53.5739C782.597 52.8872 781.279 52.5439 779.548 52.5439H776.705V48.0119H779.548Z" fill="white" fill-opacity="0.2"/>
<path d="M99.9088 171.624L870.947 167.128" stroke="white" stroke-width="1.40105" stroke-linecap="round" stroke-linejoin="round" stroke-dasharray="4.67 4.67"/>
<path d="M99.9088 171.624L870.947 167.128" stroke="white" stroke-width="1.40105" stroke-linecap="round" stroke-linejoin="round" stroke-dasharray="4.67 4.67"/>
<path d="M99.9088 171.624L870.947 167.128" stroke="white" stroke-width="1.40105" stroke-linecap="round" stroke-linejoin="round" stroke-dasharray="4.67 4.67"/>
<path d="M99.9088 171.624L870.947 167.128" stroke="white" stroke-width="1.40105" stroke-linecap="round" stroke-linejoin="round" stroke-dasharray="4.67 4.67"/>
<path d="M113.923 173.029V282.778" stroke="white" stroke-width="1.40105" stroke-linecap="round" stroke-linejoin="round" stroke-dasharray="4.67 4.67"/>
<path d="M0.905586 0L0.905579 168.126" stroke="white" stroke-width="1.40105" stroke-dasharray="4.67 4.67"/>
<path d="M245.622 0.700516V167.425" stroke="white" stroke-width="1.40105" stroke-linecap="round" stroke-linejoin="round" stroke-dasharray="4.67 4.67"/>
<path d="M488.003 0.700516V167.425" stroke="white" stroke-width="1.40105" stroke-linecap="round" stroke-linejoin="round" stroke-dasharray="4.67 4.67"/>
<path d="M971.363 0.700516V167.425" stroke="white" stroke-width="1.40105" stroke-linecap="round" stroke-linejoin="round" stroke-dasharray="4.67 4.67"/>
<path d="M373.701 173.029V282.778" stroke="white" stroke-width="1.40105" stroke-linecap="round" stroke-linejoin="round" stroke-dasharray="4.67 4.67"/>
<path d="M607.701 173.029V282.778" stroke="white" stroke-width="1.40105" stroke-linecap="round" stroke-linejoin="round" stroke-dasharray="4.67 4.67"/>
<g clip-path="url(#clip0)">
<path d="M-667.091 176.124L103.947 171.628" stroke="white" stroke-width="1.40105" stroke-linecap="round" stroke-linejoin="round" stroke-dasharray="4.67 4.67"/>
<path d="M-667.091 176.124L103.947 171.628" stroke="white" stroke-width="1.40105" stroke-linecap="round" stroke-linejoin="round" stroke-dasharray="4.67 4.67"/>
<path d="M-667.091 176.124L103.947 171.628" stroke="white" stroke-width="1.40105" stroke-linecap="round" stroke-linejoin="round" stroke-dasharray="4.67 4.67"/>
<path d="M-667.091 176.124L103.947 171.628" stroke="white" stroke-width="1.40105" stroke-linecap="round" stroke-linejoin="round" stroke-dasharray="4.67 4.67"/>
</g>
<defs>
<clipPath id="clip0">
<rect width="92" height="30" fill="white" transform="translate(28 156.5)"/>
</clipPath>
</defs>
</svg>
