<svg width="506" height="116" viewBox="0 0 506 116" fill="none" xmlns="http://www.w3.org/2000/svg">
<path d="M375.751 107.036L374.575 104.866H374.533V113H373.385V103.228H374.743L378.313 109.192L379.489 111.362H379.531V103.228H380.679V113H379.321L375.751 107.036ZM385.901 113.168C385.416 113.168 384.973 113.079 384.571 112.902C384.17 112.725 383.825 112.473 383.535 112.146C383.255 111.81 383.036 111.413 382.877 110.956C382.719 110.489 382.639 109.967 382.639 109.388C382.639 108.819 382.719 108.301 382.877 107.834C383.036 107.367 383.255 106.971 383.535 106.644C383.825 106.308 384.17 106.051 384.571 105.874C384.973 105.697 385.416 105.608 385.901 105.608C386.387 105.608 386.825 105.697 387.217 105.874C387.619 106.051 387.964 106.308 388.253 106.644C388.543 106.971 388.767 107.367 388.925 107.834C389.084 108.301 389.163 108.819 389.163 109.388C389.163 109.967 389.084 110.489 388.925 110.956C388.767 111.413 388.543 111.81 388.253 112.146C387.964 112.473 387.619 112.725 387.217 112.902C386.825 113.079 386.387 113.168 385.901 113.168ZM385.901 112.174C386.508 112.174 387.003 111.987 387.385 111.614C387.768 111.241 387.959 110.671 387.959 109.906V108.87C387.959 108.105 387.768 107.535 387.385 107.162C387.003 106.789 386.508 106.602 385.901 106.602C385.295 106.602 384.8 106.789 384.417 107.162C384.035 107.535 383.843 108.105 383.843 108.87V109.906C383.843 110.671 384.035 111.241 384.417 111.614C384.8 111.987 385.295 112.174 385.901 112.174ZM391.005 113V105.776H392.125V106.952H392.181C392.359 106.541 392.606 106.215 392.923 105.972C393.25 105.729 393.684 105.608 394.225 105.608C394.972 105.608 395.56 105.851 395.989 106.336C396.428 106.812 396.647 107.489 396.647 108.366V113H395.527V108.562C395.527 107.265 394.981 106.616 393.889 106.616C393.665 106.616 393.446 106.644 393.231 106.7C393.026 106.756 392.839 106.84 392.671 106.952C392.503 107.064 392.368 107.209 392.265 107.386C392.172 107.554 392.125 107.755 392.125 107.988V113H391.005ZM398.738 109.346V108.142H402.392V109.346H398.738ZM404.666 103.228H407.942C408.549 103.228 409.1 103.331 409.594 103.536C410.089 103.741 410.509 104.049 410.854 104.46C411.209 104.861 411.48 105.37 411.666 105.986C411.853 106.593 411.946 107.302 411.946 108.114C411.946 108.926 411.853 109.64 411.666 110.256C411.48 110.863 411.209 111.371 410.854 111.782C410.509 112.183 410.089 112.487 409.594 112.692C409.1 112.897 408.549 113 407.942 113H404.666V103.228ZM407.942 111.964C408.344 111.964 408.712 111.899 409.048 111.768C409.384 111.628 409.674 111.427 409.916 111.166C410.159 110.905 410.346 110.587 410.476 110.214C410.616 109.831 410.686 109.397 410.686 108.912V107.316C410.686 106.831 410.616 106.401 410.476 106.028C410.346 105.645 410.159 105.323 409.916 105.062C409.674 104.801 409.384 104.605 409.048 104.474C408.712 104.334 408.344 104.264 407.942 104.264H405.842V111.964H407.942ZM416.663 113.168C416.168 113.168 415.72 113.079 415.319 112.902C414.927 112.725 414.586 112.473 414.297 112.146C414.017 111.81 413.798 111.413 413.639 110.956C413.49 110.489 413.415 109.967 413.415 109.388C413.415 108.819 413.49 108.301 413.639 107.834C413.798 107.367 414.017 106.971 414.297 106.644C414.586 106.308 414.927 106.051 415.319 105.874C415.72 105.697 416.168 105.608 416.663 105.608C417.148 105.608 417.582 105.697 417.965 105.874C418.348 106.051 418.674 106.299 418.945 106.616C419.216 106.924 419.421 107.293 419.561 107.722C419.71 108.151 419.785 108.623 419.785 109.136V109.668H414.591V110.004C414.591 110.312 414.638 110.601 414.731 110.872C414.834 111.133 414.974 111.362 415.151 111.558C415.338 111.754 415.562 111.908 415.823 112.02C416.094 112.132 416.397 112.188 416.733 112.188C417.19 112.188 417.587 112.081 417.923 111.866C418.268 111.651 418.534 111.343 418.721 110.942L419.519 111.516C419.286 112.011 418.922 112.412 418.427 112.72C417.932 113.019 417.344 113.168 416.663 113.168ZM416.663 106.546C416.355 106.546 416.075 106.602 415.823 106.714C415.571 106.817 415.352 106.966 415.165 107.162C414.988 107.358 414.848 107.591 414.745 107.862C414.642 108.123 414.591 108.413 414.591 108.73V108.828H418.581V108.674C418.581 108.03 418.404 107.517 418.049 107.134C417.704 106.742 417.242 106.546 416.663 106.546ZM423.8 113.168C423.128 113.168 422.564 113.042 422.106 112.79C421.658 112.529 421.271 112.183 420.944 111.754L421.742 111.11C422.022 111.465 422.335 111.74 422.68 111.936C423.026 112.123 423.427 112.216 423.884 112.216C424.36 112.216 424.729 112.113 424.99 111.908C425.261 111.703 425.396 111.413 425.396 111.04C425.396 110.76 425.303 110.522 425.116 110.326C424.939 110.121 424.612 109.981 424.136 109.906L423.562 109.822C423.226 109.775 422.918 109.705 422.638 109.612C422.358 109.509 422.111 109.379 421.896 109.22C421.691 109.052 421.528 108.847 421.406 108.604C421.294 108.361 421.238 108.072 421.238 107.736C421.238 107.381 421.304 107.073 421.434 106.812C421.565 106.541 421.742 106.317 421.966 106.14C422.2 105.963 422.475 105.832 422.792 105.748C423.11 105.655 423.45 105.608 423.814 105.608C424.402 105.608 424.892 105.711 425.284 105.916C425.686 106.121 426.036 106.406 426.334 106.77L425.592 107.442C425.434 107.218 425.2 107.017 424.892 106.84C424.584 106.653 424.197 106.56 423.73 106.56C423.264 106.56 422.909 106.663 422.666 106.868C422.433 107.064 422.316 107.335 422.316 107.68C422.316 108.035 422.433 108.291 422.666 108.45C422.909 108.609 423.254 108.725 423.702 108.8L424.262 108.884C425.065 109.005 425.634 109.239 425.97 109.584C426.306 109.92 426.474 110.363 426.474 110.914C426.474 111.614 426.236 112.165 425.76 112.566C425.284 112.967 424.631 113.168 423.8 113.168ZM429.013 104.082C428.77 104.082 428.593 104.026 428.481 103.914C428.378 103.793 428.327 103.639 428.327 103.452V103.27C428.327 103.083 428.378 102.934 428.481 102.822C428.593 102.701 428.77 102.64 429.013 102.64C429.255 102.64 429.428 102.701 429.531 102.822C429.643 102.934 429.699 103.083 429.699 103.27V103.452C429.699 103.639 429.643 103.793 429.531 103.914C429.428 104.026 429.255 104.082 429.013 104.082ZM428.453 105.776H429.573V113H428.453V105.776ZM438.043 113.798C438.043 114.545 437.749 115.091 437.161 115.436C436.582 115.791 435.709 115.968 434.543 115.968C433.413 115.968 432.601 115.814 432.107 115.506C431.612 115.198 431.365 114.759 431.365 114.19C431.365 113.798 431.467 113.49 431.673 113.266C431.878 113.051 432.158 112.893 432.513 112.79V112.636C432.083 112.431 431.869 112.095 431.869 111.628C431.869 111.264 431.985 110.989 432.219 110.802C432.452 110.606 432.751 110.461 433.115 110.368V110.312C432.685 110.107 432.349 109.813 432.107 109.43C431.873 109.047 431.757 108.604 431.757 108.1C431.757 107.736 431.822 107.4 431.953 107.092C432.083 106.784 432.265 106.523 432.499 106.308C432.741 106.084 433.026 105.911 433.353 105.79C433.689 105.669 434.062 105.608 434.473 105.608C434.986 105.608 435.443 105.701 435.845 105.888V105.762C435.845 105.482 435.91 105.253 436.041 105.076C436.171 104.889 436.386 104.796 436.685 104.796H437.763V105.776H436.391V106.238C436.652 106.462 436.853 106.733 436.993 107.05C437.142 107.358 437.217 107.708 437.217 108.1C437.217 108.464 437.151 108.8 437.021 109.108C436.89 109.416 436.703 109.682 436.461 109.906C436.227 110.121 435.943 110.289 435.607 110.41C435.271 110.531 434.897 110.592 434.487 110.592C434.253 110.592 434.02 110.569 433.787 110.522C433.544 110.587 433.325 110.685 433.129 110.816C432.933 110.937 432.835 111.11 432.835 111.334C432.835 111.549 432.937 111.693 433.143 111.768C433.348 111.843 433.614 111.88 433.941 111.88H435.481C436.377 111.88 437.025 112.053 437.427 112.398C437.837 112.734 438.043 113.201 438.043 113.798ZM436.993 113.882C436.993 113.593 436.881 113.359 436.657 113.182C436.442 113.014 436.055 112.93 435.495 112.93H433.087C432.639 113.135 432.415 113.462 432.415 113.91C432.415 114.227 432.531 114.498 432.765 114.722C433.007 114.946 433.413 115.058 433.983 115.058H435.019C435.644 115.058 436.129 114.96 436.475 114.764C436.82 114.568 436.993 114.274 436.993 113.882ZM434.487 109.696C434.963 109.696 435.341 109.584 435.621 109.36C435.901 109.127 436.041 108.772 436.041 108.296V107.904C436.041 107.428 435.901 107.078 435.621 106.854C435.341 106.621 434.963 106.504 434.487 106.504C434.011 106.504 433.633 106.621 433.353 106.854C433.073 107.078 432.933 107.428 432.933 107.904V108.296C432.933 108.772 433.073 109.127 433.353 109.36C433.633 109.584 434.011 109.696 434.487 109.696ZM439.349 113V105.776H440.469V106.952H440.525C440.703 106.541 440.95 106.215 441.267 105.972C441.594 105.729 442.028 105.608 442.569 105.608C443.316 105.608 443.904 105.851 444.333 106.336C444.772 106.812 444.991 107.489 444.991 108.366V113H443.871V108.562C443.871 107.265 443.325 106.616 442.233 106.616C442.009 106.616 441.79 106.644 441.575 106.7C441.37 106.756 441.183 106.84 441.015 106.952C440.847 107.064 440.712 107.209 440.609 107.386C440.516 107.554 440.469 107.755 440.469 107.988V113H439.349ZM453.471 113.168C452.677 113.168 452.001 113.019 451.441 112.72C450.881 112.412 450.405 111.992 450.013 111.46L450.881 110.732C451.226 111.189 451.609 111.539 452.029 111.782C452.449 112.015 452.943 112.132 453.513 112.132C454.213 112.132 454.745 111.964 455.109 111.628C455.482 111.292 455.669 110.844 455.669 110.284C455.669 109.817 455.529 109.458 455.249 109.206C454.969 108.954 454.507 108.753 453.863 108.604L453.065 108.422C452.169 108.217 451.483 107.909 451.007 107.498C450.54 107.078 450.307 106.49 450.307 105.734C450.307 105.305 450.386 104.922 450.545 104.586C450.703 104.25 450.923 103.97 451.203 103.746C451.492 103.522 451.833 103.354 452.225 103.242C452.626 103.121 453.065 103.06 453.541 103.06C454.278 103.06 454.908 103.195 455.431 103.466C455.963 103.737 456.411 104.133 456.775 104.656L455.893 105.3C455.622 104.927 455.295 104.633 454.913 104.418C454.53 104.203 454.054 104.096 453.485 104.096C452.859 104.096 452.365 104.231 452.001 104.502C451.646 104.763 451.469 105.16 451.469 105.692C451.469 106.159 451.618 106.513 451.917 106.756C452.225 106.989 452.687 107.176 453.303 107.316L454.101 107.498C455.062 107.713 455.757 108.039 456.187 108.478C456.616 108.917 456.831 109.5 456.831 110.228C456.831 110.676 456.751 111.082 456.593 111.446C456.443 111.81 456.224 112.118 455.935 112.37C455.645 112.622 455.291 112.818 454.871 112.958C454.46 113.098 453.993 113.168 453.471 113.168ZM460.346 113C459.954 113 459.655 112.893 459.45 112.678C459.254 112.454 459.156 112.165 459.156 111.81V106.756H457.966V105.776H458.638C458.88 105.776 459.044 105.729 459.128 105.636C459.221 105.533 459.268 105.361 459.268 105.118V103.774H460.276V105.776H461.858V106.756H460.276V112.02H461.746V113H460.346ZM468.11 111.824H468.054C467.979 111.992 467.886 112.16 467.774 112.328C467.671 112.487 467.54 112.631 467.382 112.762C467.223 112.883 467.032 112.981 466.808 113.056C466.584 113.131 466.322 113.168 466.024 113.168C465.277 113.168 464.684 112.93 464.246 112.454C463.807 111.969 463.588 111.287 463.588 110.41V105.776H464.708V110.214C464.708 111.511 465.258 112.16 466.36 112.16C466.584 112.16 466.798 112.132 467.004 112.076C467.218 112.02 467.405 111.936 467.564 111.824C467.732 111.712 467.862 111.572 467.956 111.404C468.058 111.227 468.11 111.017 468.11 110.774V105.776H469.23V113H468.11V111.824ZM476.235 111.824H476.179C475.74 112.72 475.035 113.168 474.065 113.168C473.617 113.168 473.211 113.079 472.847 112.902C472.483 112.725 472.17 112.473 471.909 112.146C471.657 111.819 471.461 111.423 471.321 110.956C471.19 110.489 471.125 109.967 471.125 109.388C471.125 108.809 471.19 108.287 471.321 107.82C471.461 107.353 471.657 106.957 471.909 106.63C472.17 106.303 472.483 106.051 472.847 105.874C473.211 105.697 473.617 105.608 474.065 105.608C474.569 105.608 474.998 105.72 475.353 105.944C475.717 106.159 475.992 106.495 476.179 106.952H476.235V102.64H477.355V113H476.235V111.824ZM474.373 112.16C474.625 112.16 474.863 112.127 475.087 112.062C475.32 111.997 475.521 111.903 475.689 111.782C475.857 111.651 475.987 111.497 476.081 111.32C476.183 111.133 476.235 110.923 476.235 110.69V108.002C476.235 107.806 476.183 107.624 476.081 107.456C475.987 107.279 475.857 107.129 475.689 107.008C475.521 106.887 475.32 106.793 475.087 106.728C474.863 106.653 474.625 106.616 474.373 106.616C473.738 106.616 473.239 106.817 472.875 107.218C472.511 107.61 472.329 108.128 472.329 108.772V110.004C472.329 110.648 472.511 111.171 472.875 111.572C473.239 111.964 473.738 112.16 474.373 112.16ZM482.452 113.168C481.957 113.168 481.509 113.079 481.108 112.902C480.716 112.725 480.375 112.473 480.086 112.146C479.806 111.81 479.587 111.413 479.428 110.956C479.279 110.489 479.204 109.967 479.204 109.388C479.204 108.819 479.279 108.301 479.428 107.834C479.587 107.367 479.806 106.971 480.086 106.644C480.375 106.308 480.716 106.051 481.108 105.874C481.509 105.697 481.957 105.608 482.452 105.608C482.937 105.608 483.371 105.697 483.754 105.874C484.137 106.051 484.463 106.299 484.734 106.616C485.005 106.924 485.21 107.293 485.35 107.722C485.499 108.151 485.574 108.623 485.574 109.136V109.668H480.38V110.004C480.38 110.312 480.427 110.601 480.52 110.872C480.623 111.133 480.763 111.362 480.94 111.558C481.127 111.754 481.351 111.908 481.612 112.02C481.883 112.132 482.186 112.188 482.522 112.188C482.979 112.188 483.376 112.081 483.712 111.866C484.057 111.651 484.323 111.343 484.51 110.942L485.308 111.516C485.075 112.011 484.711 112.412 484.216 112.72C483.721 113.019 483.133 113.168 482.452 113.168ZM482.452 106.546C482.144 106.546 481.864 106.602 481.612 106.714C481.36 106.817 481.141 106.966 480.954 107.162C480.777 107.358 480.637 107.591 480.534 107.862C480.431 108.123 480.38 108.413 480.38 108.73V108.828H484.37V108.674C484.37 108.03 484.193 107.517 483.838 107.134C483.493 106.742 483.031 106.546 482.452 106.546ZM487.419 113V105.776H488.539V106.952H488.595C488.773 106.541 489.02 106.215 489.337 105.972C489.664 105.729 490.098 105.608 490.639 105.608C491.386 105.608 491.974 105.851 492.403 106.336C492.842 106.812 493.061 107.489 493.061 108.366V113H491.941V108.562C491.941 107.265 491.395 106.616 490.303 106.616C490.079 106.616 489.86 106.644 489.645 106.7C489.44 106.756 489.253 106.84 489.085 106.952C488.917 107.064 488.782 107.209 488.679 107.386C488.586 107.554 488.539 107.755 488.539 107.988V113H487.419ZM496.973 113C496.581 113 496.282 112.893 496.077 112.678C495.881 112.454 495.783 112.165 495.783 111.81V106.756H494.593V105.776H495.265C495.507 105.776 495.671 105.729 495.755 105.636C495.848 105.533 495.895 105.361 495.895 105.118V103.774H496.903V105.776H498.485V106.756H496.903V112.02H498.373V113H496.973ZM502.455 113.168C501.783 113.168 501.218 113.042 500.761 112.79C500.313 112.529 499.925 112.183 499.599 111.754L500.397 111.11C500.677 111.465 500.989 111.74 501.335 111.936C501.68 112.123 502.081 112.216 502.539 112.216C503.015 112.216 503.383 112.113 503.645 111.908C503.915 111.703 504.051 111.413 504.051 111.04C504.051 110.76 503.957 110.522 503.771 110.326C503.593 110.121 503.267 109.981 502.791 109.906L502.217 109.822C501.881 109.775 501.573 109.705 501.293 109.612C501.013 109.509 500.765 109.379 500.551 109.22C500.345 109.052 500.182 108.847 500.061 108.604C499.949 108.361 499.893 108.072 499.893 107.736C499.893 107.381 499.958 107.073 500.089 106.812C500.219 106.541 500.397 106.317 500.621 106.14C500.854 105.963 501.129 105.832 501.447 105.748C501.764 105.655 502.105 105.608 502.469 105.608C503.057 105.608 503.547 105.711 503.939 105.916C504.34 106.121 504.69 106.406 504.989 106.77L504.247 107.442C504.088 107.218 503.855 107.017 503.547 106.84C503.239 106.653 502.851 106.56 502.385 106.56C501.918 106.56 501.563 106.663 501.321 106.868C501.087 107.064 500.971 107.335 500.971 107.68C500.971 108.035 501.087 108.291 501.321 108.45C501.563 108.609 501.909 108.725 502.357 108.8L502.917 108.884C503.719 109.005 504.289 109.239 504.625 109.584C504.961 109.92 505.129 110.363 505.129 110.914C505.129 111.614 504.891 112.165 504.415 112.566C503.939 112.967 503.285 113.168 502.455 113.168Z" fill="#5C5C5C"/>
<path d="M4.33799 113.168C3.54466 113.168 2.86799 113.019 2.30799 112.72C1.74799 112.412 1.27199 111.992 0.879992 111.46L1.74799 110.732C2.09333 111.189 2.47599 111.539 2.89599 111.782C3.31599 112.015 3.81066 112.132 4.37999 112.132C5.07999 112.132 5.61199 111.964 5.97599 111.628C6.34933 111.292 6.53599 110.844 6.53599 110.284C6.53599 109.817 6.39599 109.458 6.11599 109.206C5.83599 108.954 5.37399 108.753 4.72999 108.604L3.93199 108.422C3.03599 108.217 2.34999 107.909 1.87399 107.498C1.40733 107.078 1.17399 106.49 1.17399 105.734C1.17399 105.305 1.25333 104.922 1.41199 104.586C1.57066 104.25 1.78999 103.97 2.06999 103.746C2.35933 103.522 2.69999 103.354 3.09199 103.242C3.49333 103.121 3.93199 103.06 4.40799 103.06C5.14533 103.06 5.77533 103.195 6.29799 103.466C6.82999 103.737 7.27799 104.133 7.64199 104.656L6.75999 105.3C6.48933 104.927 6.16266 104.633 5.77999 104.418C5.39733 104.203 4.92133 104.096 4.35199 104.096C3.72666 104.096 3.23199 104.231 2.86799 104.502C2.51333 104.763 2.33599 105.16 2.33599 105.692C2.33599 106.159 2.48533 106.513 2.78399 106.756C3.09199 106.989 3.55399 107.176 4.16999 107.316L4.96799 107.498C5.92933 107.713 6.62466 108.039 7.05399 108.478C7.48333 108.917 7.69799 109.5 7.69799 110.228C7.69799 110.676 7.61866 111.082 7.45999 111.446C7.31066 111.81 7.09133 112.118 6.80199 112.37C6.51266 112.622 6.15799 112.818 5.73799 112.958C5.32733 113.098 4.86066 113.168 4.33799 113.168ZM12.3048 113.168C11.8008 113.168 11.3481 113.079 10.9468 112.902C10.5454 112.725 10.2048 112.473 9.92476 112.146C9.65409 111.819 9.44409 111.423 9.29476 110.956C9.15476 110.489 9.08476 109.967 9.08476 109.388C9.08476 108.809 9.15476 108.287 9.29476 107.82C9.44409 107.353 9.65409 106.957 9.92476 106.63C10.2048 106.303 10.5454 106.051 10.9468 105.874C11.3481 105.697 11.8008 105.608 12.3048 105.608C13.0234 105.608 13.5974 105.767 14.0268 106.084C14.4654 106.392 14.7921 106.798 15.0068 107.302L14.0688 107.778C13.9381 107.405 13.7234 107.115 13.4248 106.91C13.1261 106.705 12.7528 106.602 12.3048 106.602C11.9688 106.602 11.6748 106.658 11.4228 106.77C11.1708 106.873 10.9608 107.022 10.7928 107.218C10.6248 107.405 10.4988 107.633 10.4148 107.904C10.3308 108.165 10.2888 108.455 10.2888 108.772V110.004C10.2888 110.639 10.4568 111.161 10.7928 111.572C11.1381 111.973 11.6421 112.174 12.3048 112.174C13.2101 112.174 13.8634 111.754 14.2648 110.914L15.0768 111.46C14.8434 111.983 14.4934 112.398 14.0268 112.706C13.5694 113.014 12.9954 113.168 12.3048 113.168ZM16.6578 102.64H17.7778V106.952H17.8338C18.0111 106.541 18.2584 106.215 18.5758 105.972C18.9024 105.729 19.3364 105.608 19.8778 105.608C20.6244 105.608 21.2124 105.851 21.6418 106.336C22.0804 106.812 22.2998 107.489 22.2998 108.366V113H21.1798V108.562C21.1798 107.265 20.6338 106.616 19.5418 106.616C19.3178 106.616 19.0984 106.644 18.8838 106.7C18.6784 106.756 18.4918 106.84 18.3238 106.952C18.1558 107.064 18.0204 107.209 17.9178 107.386C17.8244 107.554 17.7778 107.755 17.7778 107.988V113H16.6578V102.64ZM27.3448 113.168C26.8595 113.168 26.4161 113.079 26.0148 112.902C25.6135 112.725 25.2681 112.473 24.9788 112.146C24.6988 111.81 24.4795 111.413 24.3208 110.956C24.1621 110.489 24.0828 109.967 24.0828 109.388C24.0828 108.819 24.1621 108.301 24.3208 107.834C24.4795 107.367 24.6988 106.971 24.9788 106.644C25.2681 106.308 25.6135 106.051 26.0148 105.874C26.4161 105.697 26.8595 105.608 27.3448 105.608C27.8301 105.608 28.2688 105.697 28.6608 105.874C29.0621 106.051 29.4075 106.308 29.6968 106.644C29.9861 106.971 30.2101 107.367 30.3688 107.834C30.5275 108.301 30.6068 108.819 30.6068 109.388C30.6068 109.967 30.5275 110.489 30.3688 110.956C30.2101 111.413 29.9861 111.81 29.6968 112.146C29.4075 112.473 29.0621 112.725 28.6608 112.902C28.2688 113.079 27.8301 113.168 27.3448 113.168ZM27.3448 112.174C27.9515 112.174 28.4461 111.987 28.8288 111.614C29.2115 111.241 29.4028 110.671 29.4028 109.906V108.87C29.4028 108.105 29.2115 107.535 28.8288 107.162C28.4461 106.789 27.9515 106.602 27.3448 106.602C26.7381 106.602 26.2435 106.789 25.8608 107.162C25.4781 107.535 25.2868 108.105 25.2868 108.87V109.906C25.2868 110.671 25.4781 111.241 25.8608 111.614C26.2435 111.987 26.7381 112.174 27.3448 112.174ZM35.1788 113.168C34.6935 113.168 34.2501 113.079 33.8488 112.902C33.4475 112.725 33.1021 112.473 32.8128 112.146C32.5328 111.81 32.3135 111.413 32.1548 110.956C31.9961 110.489 31.9168 109.967 31.9168 109.388C31.9168 108.819 31.9961 108.301 32.1548 107.834C32.3135 107.367 32.5328 106.971 32.8128 106.644C33.1021 106.308 33.4475 106.051 33.8488 105.874C34.2501 105.697 34.6935 105.608 35.1788 105.608C35.6641 105.608 36.1028 105.697 36.4948 105.874C36.8961 106.051 37.2415 106.308 37.5308 106.644C37.8201 106.971 38.0441 107.367 38.2028 107.834C38.3615 108.301 38.4408 108.819 38.4408 109.388C38.4408 109.967 38.3615 110.489 38.2028 110.956C38.0441 111.413 37.8201 111.81 37.5308 112.146C37.2415 112.473 36.8961 112.725 36.4948 112.902C36.1028 113.079 35.6641 113.168 35.1788 113.168ZM35.1788 112.174C35.7855 112.174 36.2801 111.987 36.6628 111.614C37.0455 111.241 37.2368 110.671 37.2368 109.906V108.87C37.2368 108.105 37.0455 107.535 36.6628 107.162C36.2801 106.789 35.7855 106.602 35.1788 106.602C34.5721 106.602 34.0775 106.789 33.6948 107.162C33.3121 107.535 33.1208 108.105 33.1208 108.87V109.906C33.1208 110.671 33.3121 111.241 33.6948 111.614C34.0775 111.987 34.5721 112.174 35.1788 112.174ZM41.4728 113C41.0808 113 40.7821 112.893 40.5768 112.678C40.3808 112.454 40.2828 112.174 40.2828 111.838V102.64H41.4028V112.02H42.4668V113H41.4728ZM50.2618 113.168C49.4685 113.168 48.7918 113.019 48.2318 112.72C47.6718 112.412 47.1958 111.992 46.8038 111.46L47.6718 110.732C48.0172 111.189 48.3998 111.539 48.8198 111.782C49.2398 112.015 49.7345 112.132 50.3038 112.132C51.0038 112.132 51.5358 111.964 51.8998 111.628C52.2732 111.292 52.4598 110.844 52.4598 110.284C52.4598 109.817 52.3198 109.458 52.0398 109.206C51.7598 108.954 51.2978 108.753 50.6538 108.604L49.8558 108.422C48.9598 108.217 48.2738 107.909 47.7978 107.498C47.3312 107.078 47.0978 106.49 47.0978 105.734C47.0978 105.305 47.1772 104.922 47.3358 104.586C47.4945 104.25 47.7138 103.97 47.9938 103.746C48.2832 103.522 48.6238 103.354 49.0158 103.242C49.4172 103.121 49.8558 103.06 50.3318 103.06C51.0692 103.06 51.6992 103.195 52.2218 103.466C52.7538 103.737 53.2018 104.133 53.5658 104.656L52.6838 105.3C52.4132 104.927 52.0865 104.633 51.7038 104.418C51.3212 104.203 50.8452 104.096 50.2758 104.096C49.6505 104.096 49.1558 104.231 48.7918 104.502C48.4372 104.763 48.2598 105.16 48.2598 105.692C48.2598 106.159 48.4092 106.513 48.7078 106.756C49.0158 106.989 49.4778 107.176 50.0938 107.316L50.8918 107.498C51.8532 107.713 52.5485 108.039 52.9778 108.478C53.4072 108.917 53.6218 109.5 53.6218 110.228C53.6218 110.676 53.5425 111.082 53.3838 111.446C53.2345 111.81 53.0152 112.118 52.7258 112.37C52.4365 112.622 52.0818 112.818 51.6618 112.958C51.2512 113.098 50.7845 113.168 50.2618 113.168ZM57.1366 113C56.7446 113 56.4459 112.893 56.2406 112.678C56.0446 112.454 55.9466 112.165 55.9466 111.81V106.756H54.7566V105.776H55.4286C55.6713 105.776 55.8346 105.729 55.9186 105.636C56.0119 105.533 56.0586 105.361 56.0586 105.118V103.774H57.0666V105.776H58.6486V106.756H57.0666V112.02H58.5366V113H57.1366ZM64.9008 111.824H64.8448C64.7701 111.992 64.6768 112.16 64.5648 112.328C64.4621 112.487 64.3315 112.631 64.1728 112.762C64.0141 112.883 63.8228 112.981 63.5988 113.056C63.3748 113.131 63.1135 113.168 62.8148 113.168C62.0681 113.168 61.4755 112.93 61.0368 112.454C60.5981 111.969 60.3788 111.287 60.3788 110.41V105.776H61.4988V110.214C61.4988 111.511 62.0495 112.16 63.1508 112.16C63.3748 112.16 63.5895 112.132 63.7948 112.076C64.0095 112.02 64.1961 111.936 64.3548 111.824C64.5228 111.712 64.6535 111.572 64.7468 111.404C64.8495 111.227 64.9008 111.017 64.9008 110.774V105.776H66.0208V113H64.9008V111.824ZM73.0258 111.824H72.9698C72.5312 112.72 71.8265 113.168 70.8558 113.168C70.4078 113.168 70.0018 113.079 69.6378 112.902C69.2738 112.725 68.9612 112.473 68.6998 112.146C68.4478 111.819 68.2518 111.423 68.1118 110.956C67.9812 110.489 67.9158 109.967 67.9158 109.388C67.9158 108.809 67.9812 108.287 68.1118 107.82C68.2518 107.353 68.4478 106.957 68.6998 106.63C68.9612 106.303 69.2738 106.051 69.6378 105.874C70.0018 105.697 70.4078 105.608 70.8558 105.608C71.3598 105.608 71.7892 105.72 72.1438 105.944C72.5078 106.159 72.7832 106.495 72.9698 106.952H73.0258V102.64H74.1458V113H73.0258V111.824ZM71.1638 112.16C71.4158 112.16 71.6538 112.127 71.8778 112.062C72.1112 111.997 72.3118 111.903 72.4798 111.782C72.6478 111.651 72.7785 111.497 72.8718 111.32C72.9745 111.133 73.0258 110.923 73.0258 110.69V108.002C73.0258 107.806 72.9745 107.624 72.8718 107.456C72.7785 107.279 72.6478 107.129 72.4798 107.008C72.3118 106.887 72.1112 106.793 71.8778 106.728C71.6538 106.653 71.4158 106.616 71.1638 106.616C70.5292 106.616 70.0298 106.817 69.6658 107.218C69.3018 107.61 69.1198 108.128 69.1198 108.772V110.004C69.1198 110.648 69.3018 111.171 69.6658 111.572C70.0298 111.964 70.5292 112.16 71.1638 112.16ZM79.2429 113.168C78.7482 113.168 78.3002 113.079 77.8989 112.902C77.5069 112.725 77.1662 112.473 76.8769 112.146C76.5969 111.81 76.3776 111.413 76.2189 110.956C76.0696 110.489 75.9949 109.967 75.9949 109.388C75.9949 108.819 76.0696 108.301 76.2189 107.834C76.3776 107.367 76.5969 106.971 76.8769 106.644C77.1662 106.308 77.5069 106.051 77.8989 105.874C78.3002 105.697 78.7482 105.608 79.2429 105.608C79.7282 105.608 80.1622 105.697 80.5449 105.874C80.9276 106.051 81.2542 106.299 81.5249 106.616C81.7956 106.924 82.0009 107.293 82.1409 107.722C82.2902 108.151 82.3649 108.623 82.3649 109.136V109.668H77.1709V110.004C77.1709 110.312 77.2176 110.601 77.3109 110.872C77.4136 111.133 77.5536 111.362 77.7309 111.558C77.9176 111.754 78.1416 111.908 78.4029 112.02C78.6736 112.132 78.9769 112.188 79.3129 112.188C79.7702 112.188 80.1669 112.081 80.5029 111.866C80.8482 111.651 81.1142 111.343 81.3009 110.942L82.0989 111.516C81.8656 112.011 81.5016 112.412 81.0069 112.72C80.5122 113.019 79.9242 113.168 79.2429 113.168ZM79.2429 106.546C78.9349 106.546 78.6549 106.602 78.4029 106.714C78.1509 106.817 77.9316 106.966 77.7449 107.162C77.5676 107.358 77.4276 107.591 77.3249 107.862C77.2222 108.123 77.1709 108.413 77.1709 108.73V108.828H81.1609V108.674C81.1609 108.03 80.9836 107.517 80.6289 107.134C80.2836 106.742 79.8216 106.546 79.2429 106.546ZM84.2105 113V105.776H85.3305V106.952H85.3865C85.5638 106.541 85.8112 106.215 86.1285 105.972C86.4552 105.729 86.8892 105.608 87.4305 105.608C88.1772 105.608 88.7652 105.851 89.1945 106.336C89.6332 106.812 89.8525 107.489 89.8525 108.366V113H88.7325V108.562C88.7325 107.265 88.1865 106.616 87.0945 106.616C86.8705 106.616 86.6512 106.644 86.4365 106.7C86.2312 106.756 86.0445 106.84 85.8765 106.952C85.7085 107.064 85.5732 107.209 85.4705 107.386C85.3772 107.554 85.3305 107.755 85.3305 107.988V113H84.2105ZM93.7635 113C93.3715 113 93.0729 112.893 92.8675 112.678C92.6715 112.454 92.5735 112.165 92.5735 111.81V106.756H91.3835V105.776H92.0555C92.2982 105.776 92.4615 105.729 92.5455 105.636C92.6389 105.533 92.6855 105.361 92.6855 105.118V103.774H93.6935V105.776H95.2755V106.756H93.6935V112.02H95.1635V113H93.7635ZM99.2457 113.168C98.5737 113.168 98.0091 113.042 97.5517 112.79C97.1037 112.529 96.7164 112.183 96.3897 111.754L97.1877 111.11C97.4677 111.465 97.7804 111.74 98.1257 111.936C98.4711 112.123 98.8724 112.216 99.3297 112.216C99.8057 112.216 100.174 112.113 100.436 111.908C100.706 111.703 100.842 111.413 100.842 111.04C100.842 110.76 100.748 110.522 100.562 110.326C100.384 110.121 100.058 109.981 99.5817 109.906L99.0077 109.822C98.6717 109.775 98.3637 109.705 98.0837 109.612C97.8037 109.509 97.5564 109.379 97.3417 109.22C97.1364 109.052 96.9731 108.847 96.8517 108.604C96.7397 108.361 96.6837 108.072 96.6837 107.736C96.6837 107.381 96.7491 107.073 96.8797 106.812C97.0104 106.541 97.1877 106.317 97.4117 106.14C97.6451 105.963 97.9204 105.832 98.2377 105.748C98.5551 105.655 98.8957 105.608 99.2597 105.608C99.8477 105.608 100.338 105.711 100.73 105.916C101.131 106.121 101.481 106.406 101.78 106.77L101.038 107.442C100.879 107.218 100.646 107.017 100.338 106.84C100.03 106.653 99.6424 106.56 99.1757 106.56C98.7091 106.56 98.3544 106.663 98.1117 106.868C97.8784 107.064 97.7617 107.335 97.7617 107.68C97.7617 108.035 97.8784 108.291 98.1117 108.45C98.3544 108.609 98.6997 108.725 99.1477 108.8L99.7077 108.884C100.51 109.005 101.08 109.239 101.416 109.584C101.752 109.92 101.92 110.363 101.92 110.914C101.92 111.614 101.682 112.165 101.206 112.566C100.73 112.967 100.076 113.168 99.2457 113.168Z" fill="#5C5C5C"/>
<path d="M190.526 103.228H193.802C194.408 103.228 194.959 103.331 195.454 103.536C195.948 103.741 196.368 104.049 196.714 104.46C197.068 104.861 197.339 105.37 197.526 105.986C197.712 106.593 197.806 107.302 197.806 108.114C197.806 108.926 197.712 109.64 197.526 110.256C197.339 110.863 197.068 111.371 196.714 111.782C196.368 112.183 195.948 112.487 195.454 112.692C194.959 112.897 194.408 113 193.802 113H190.526V103.228ZM193.802 111.964C194.203 111.964 194.572 111.899 194.908 111.768C195.244 111.628 195.533 111.427 195.776 111.166C196.018 110.905 196.205 110.587 196.336 110.214C196.476 109.831 196.546 109.397 196.546 108.912V107.316C196.546 106.831 196.476 106.401 196.336 106.028C196.205 105.645 196.018 105.323 195.776 105.062C195.533 104.801 195.244 104.605 194.908 104.474C194.572 104.334 194.203 104.264 193.802 104.264H191.702V111.964H193.802ZM202.522 113.168C202.028 113.168 201.58 113.079 201.178 112.902C200.786 112.725 200.446 112.473 200.156 112.146C199.876 111.81 199.657 111.413 199.498 110.956C199.349 110.489 199.274 109.967 199.274 109.388C199.274 108.819 199.349 108.301 199.498 107.834C199.657 107.367 199.876 106.971 200.156 106.644C200.446 106.308 200.786 106.051 201.178 105.874C201.58 105.697 202.028 105.608 202.522 105.608C203.008 105.608 203.442 105.697 203.824 105.874C204.207 106.051 204.534 106.299 204.804 106.616C205.075 106.924 205.28 107.293 205.42 107.722C205.57 108.151 205.644 108.623 205.644 109.136V109.668H200.45V110.004C200.45 110.312 200.497 110.601 200.59 110.872C200.693 111.133 200.833 111.362 201.01 111.558C201.197 111.754 201.421 111.908 201.682 112.02C201.953 112.132 202.256 112.188 202.592 112.188C203.05 112.188 203.446 112.081 203.782 111.866C204.128 111.651 204.394 111.343 204.58 110.942L205.378 111.516C205.145 112.011 204.781 112.412 204.286 112.72C203.792 113.019 203.204 113.168 202.522 113.168ZM202.522 106.546C202.214 106.546 201.934 106.602 201.682 106.714C201.43 106.817 201.211 106.966 201.024 107.162C200.847 107.358 200.707 107.591 200.604 107.862C200.502 108.123 200.45 108.413 200.45 108.73V108.828H204.44V108.674C204.44 108.03 204.263 107.517 203.908 107.134C203.563 106.742 203.101 106.546 202.522 106.546ZM209.66 113.168C208.988 113.168 208.423 113.042 207.966 112.79C207.518 112.529 207.13 112.183 206.804 111.754L207.602 111.11C207.882 111.465 208.194 111.74 208.54 111.936C208.885 112.123 209.286 112.216 209.744 112.216C210.22 112.216 210.588 112.113 210.85 111.908C211.12 111.703 211.256 111.413 211.256 111.04C211.256 110.76 211.162 110.522 210.976 110.326C210.798 110.121 210.472 109.981 209.996 109.906L209.422 109.822C209.086 109.775 208.778 109.705 208.498 109.612C208.218 109.509 207.97 109.379 207.756 109.22C207.55 109.052 207.387 108.847 207.266 108.604C207.154 108.361 207.098 108.072 207.098 107.736C207.098 107.381 207.163 107.073 207.294 106.812C207.424 106.541 207.602 106.317 207.826 106.14C208.059 105.963 208.334 105.832 208.652 105.748C208.969 105.655 209.31 105.608 209.674 105.608C210.262 105.608 210.752 105.711 211.144 105.916C211.545 106.121 211.895 106.406 212.194 106.77L211.452 107.442C211.293 107.218 211.06 107.017 210.752 106.84C210.444 106.653 210.056 106.56 209.59 106.56C209.123 106.56 208.768 106.663 208.526 106.868C208.292 107.064 208.176 107.335 208.176 107.68C208.176 108.035 208.292 108.291 208.526 108.45C208.768 108.609 209.114 108.725 209.562 108.8L210.122 108.884C210.924 109.005 211.494 109.239 211.83 109.584C212.166 109.92 212.334 110.363 212.334 110.914C212.334 111.614 212.096 112.165 211.62 112.566C211.144 112.967 210.49 113.168 209.66 113.168ZM214.872 104.082C214.629 104.082 214.452 104.026 214.34 103.914C214.237 103.793 214.186 103.639 214.186 103.452V103.27C214.186 103.083 214.237 102.934 214.34 102.822C214.452 102.701 214.629 102.64 214.872 102.64C215.115 102.64 215.287 102.701 215.39 102.822C215.502 102.934 215.558 103.083 215.558 103.27V103.452C215.558 103.639 215.502 103.793 215.39 103.914C215.287 104.026 215.115 104.082 214.872 104.082ZM214.312 105.776H215.432V113H214.312V105.776ZM223.902 113.798C223.902 114.545 223.608 115.091 223.02 115.436C222.441 115.791 221.569 115.968 220.402 115.968C219.273 115.968 218.461 115.814 217.966 115.506C217.471 115.198 217.224 114.759 217.224 114.19C217.224 113.798 217.327 113.49 217.532 113.266C217.737 113.051 218.017 112.893 218.372 112.79V112.636C217.943 112.431 217.728 112.095 217.728 111.628C217.728 111.264 217.845 110.989 218.078 110.802C218.311 110.606 218.61 110.461 218.974 110.368V110.312C218.545 110.107 218.209 109.813 217.966 109.43C217.733 109.047 217.616 108.604 217.616 108.1C217.616 107.736 217.681 107.4 217.812 107.092C217.943 106.784 218.125 106.523 218.358 106.308C218.601 106.084 218.885 105.911 219.212 105.79C219.548 105.669 219.921 105.608 220.332 105.608C220.845 105.608 221.303 105.701 221.704 105.888V105.762C221.704 105.482 221.769 105.253 221.9 105.076C222.031 104.889 222.245 104.796 222.544 104.796H223.622V105.776H222.25V106.238C222.511 106.462 222.712 106.733 222.852 107.05C223.001 107.358 223.076 107.708 223.076 108.1C223.076 108.464 223.011 108.8 222.88 109.108C222.749 109.416 222.563 109.682 222.32 109.906C222.087 110.121 221.802 110.289 221.466 110.41C221.13 110.531 220.757 110.592 220.346 110.592C220.113 110.592 219.879 110.569 219.646 110.522C219.403 110.587 219.184 110.685 218.988 110.816C218.792 110.937 218.694 111.11 218.694 111.334C218.694 111.549 218.797 111.693 219.002 111.768C219.207 111.843 219.473 111.88 219.8 111.88H221.34C222.236 111.88 222.885 112.053 223.286 112.398C223.697 112.734 223.902 113.201 223.902 113.798ZM222.852 113.882C222.852 113.593 222.74 113.359 222.516 113.182C222.301 113.014 221.914 112.93 221.354 112.93H218.946C218.498 113.135 218.274 113.462 218.274 113.91C218.274 114.227 218.391 114.498 218.624 114.722C218.867 114.946 219.273 115.058 219.842 115.058H220.878C221.503 115.058 221.989 114.96 222.334 114.764C222.679 114.568 222.852 114.274 222.852 113.882ZM220.346 109.696C220.822 109.696 221.2 109.584 221.48 109.36C221.76 109.127 221.9 108.772 221.9 108.296V107.904C221.9 107.428 221.76 107.078 221.48 106.854C221.2 106.621 220.822 106.504 220.346 106.504C219.87 106.504 219.492 106.621 219.212 106.854C218.932 107.078 218.792 107.428 218.792 107.904V108.296C218.792 108.772 218.932 109.127 219.212 109.36C219.492 109.584 219.87 109.696 220.346 109.696ZM225.209 113V105.776H226.329V106.952H226.385C226.562 106.541 226.809 106.215 227.127 105.972C227.453 105.729 227.887 105.608 228.429 105.608C229.175 105.608 229.763 105.851 230.193 106.336C230.631 106.812 230.851 107.489 230.851 108.366V113H229.731V108.562C229.731 107.265 229.185 106.616 228.093 106.616C227.869 106.616 227.649 106.644 227.435 106.7C227.229 106.756 227.043 106.84 226.875 106.952C226.707 107.064 226.571 107.209 226.469 107.386C226.375 107.554 226.329 107.755 226.329 107.988V113H225.209ZM239.33 113.168C238.537 113.168 237.86 113.019 237.3 112.72C236.74 112.412 236.264 111.992 235.872 111.46L236.74 110.732C237.086 111.189 237.468 111.539 237.888 111.782C238.308 112.015 238.803 112.132 239.372 112.132C240.072 112.132 240.604 111.964 240.968 111.628C241.342 111.292 241.528 110.844 241.528 110.284C241.528 109.817 241.388 109.458 241.108 109.206C240.828 108.954 240.366 108.753 239.722 108.604L238.924 108.422C238.028 108.217 237.342 107.909 236.866 107.498C236.4 107.078 236.166 106.49 236.166 105.734C236.166 105.305 236.246 104.922 236.404 104.586C236.563 104.25 236.782 103.97 237.062 103.746C237.352 103.522 237.692 103.354 238.084 103.242C238.486 103.121 238.924 103.06 239.4 103.06C240.138 103.06 240.768 103.195 241.29 103.466C241.822 103.737 242.27 104.133 242.634 104.656L241.752 105.3C241.482 104.927 241.155 104.633 240.772 104.418C240.39 104.203 239.914 104.096 239.344 104.096C238.719 104.096 238.224 104.231 237.86 104.502C237.506 104.763 237.328 105.16 237.328 105.692C237.328 106.159 237.478 106.513 237.776 106.756C238.084 106.989 238.546 107.176 239.162 107.316L239.96 107.498C240.922 107.713 241.617 108.039 242.046 108.478C242.476 108.917 242.69 109.5 242.69 110.228C242.69 110.676 242.611 111.082 242.452 111.446C242.303 111.81 242.084 112.118 241.794 112.37C241.505 112.622 241.15 112.818 240.73 112.958C240.32 113.098 239.853 113.168 239.33 113.168ZM246.205 113C245.813 113 245.514 112.893 245.309 112.678C245.113 112.454 245.015 112.165 245.015 111.81V106.756H243.825V105.776H244.497C244.74 105.776 244.903 105.729 244.987 105.636C245.08 105.533 245.127 105.361 245.127 105.118V103.774H246.135V105.776H247.717V106.756H246.135V112.02H247.605V113H246.205ZM253.969 111.824H253.913C253.838 111.992 253.745 112.16 253.633 112.328C253.53 112.487 253.4 112.631 253.241 112.762C253.082 112.883 252.891 112.981 252.667 113.056C252.443 113.131 252.182 113.168 251.883 113.168C251.136 113.168 250.544 112.93 250.105 112.454C249.666 111.969 249.447 111.287 249.447 110.41V105.776H250.567V110.214C250.567 111.511 251.118 112.16 252.219 112.16C252.443 112.16 252.658 112.132 252.863 112.076C253.078 112.02 253.264 111.936 253.423 111.824C253.591 111.712 253.722 111.572 253.815 111.404C253.918 111.227 253.969 111.017 253.969 110.774V105.776H255.089V113H253.969V111.824ZM262.094 111.824H262.038C261.6 112.72 260.895 113.168 259.924 113.168C259.476 113.168 259.07 113.079 258.706 112.902C258.342 112.725 258.03 112.473 257.768 112.146C257.516 111.819 257.32 111.423 257.18 110.956C257.05 110.489 256.984 109.967 256.984 109.388C256.984 108.809 257.05 108.287 257.18 107.82C257.32 107.353 257.516 106.957 257.768 106.63C258.03 106.303 258.342 106.051 258.706 105.874C259.07 105.697 259.476 105.608 259.924 105.608C260.428 105.608 260.858 105.72 261.212 105.944C261.576 106.159 261.852 106.495 262.038 106.952H262.094V102.64H263.214V113H262.094V111.824ZM260.232 112.16C260.484 112.16 260.722 112.127 260.946 112.062C261.18 111.997 261.38 111.903 261.548 111.782C261.716 111.651 261.847 111.497 261.94 111.32C262.043 111.133 262.094 110.923 262.094 110.69V108.002C262.094 107.806 262.043 107.624 261.94 107.456C261.847 107.279 261.716 107.129 261.548 107.008C261.38 106.887 261.18 106.793 260.946 106.728C260.722 106.653 260.484 106.616 260.232 106.616C259.598 106.616 259.098 106.817 258.734 107.218C258.37 107.61 258.188 108.128 258.188 108.772V110.004C258.188 110.648 258.37 111.171 258.734 111.572C259.098 111.964 259.598 112.16 260.232 112.16ZM268.311 113.168C267.817 113.168 267.369 113.079 266.967 112.902C266.575 112.725 266.235 112.473 265.945 112.146C265.665 111.81 265.446 111.413 265.287 110.956C265.138 110.489 265.063 109.967 265.063 109.388C265.063 108.819 265.138 108.301 265.287 107.834C265.446 107.367 265.665 106.971 265.945 106.644C266.235 106.308 266.575 106.051 266.967 105.874C267.369 105.697 267.817 105.608 268.311 105.608C268.797 105.608 269.231 105.697 269.613 105.874C269.996 106.051 270.323 106.299 270.593 106.616C270.864 106.924 271.069 107.293 271.209 107.722C271.359 108.151 271.433 108.623 271.433 109.136V109.668H266.239V110.004C266.239 110.312 266.286 110.601 266.379 110.872C266.482 111.133 266.622 111.362 266.799 111.558C266.986 111.754 267.21 111.908 267.471 112.02C267.742 112.132 268.045 112.188 268.381 112.188C268.839 112.188 269.235 112.081 269.571 111.866C269.917 111.651 270.183 111.343 270.369 110.942L271.167 111.516C270.934 112.011 270.57 112.412 270.075 112.72C269.581 113.019 268.993 113.168 268.311 113.168ZM268.311 106.546C268.003 106.546 267.723 106.602 267.471 106.714C267.219 106.817 267 106.966 266.813 107.162C266.636 107.358 266.496 107.591 266.393 107.862C266.291 108.123 266.239 108.413 266.239 108.73V108.828H270.229V108.674C270.229 108.03 270.052 107.517 269.697 107.134C269.352 106.742 268.89 106.546 268.311 106.546ZM273.279 113V105.776H274.399V106.952H274.455C274.632 106.541 274.88 106.215 275.197 105.972C275.524 105.729 275.958 105.608 276.499 105.608C277.246 105.608 277.834 105.851 278.263 106.336C278.702 106.812 278.921 107.489 278.921 108.366V113H277.801V108.562C277.801 107.265 277.255 106.616 276.163 106.616C275.939 106.616 275.72 106.644 275.505 106.7C275.3 106.756 275.113 106.84 274.945 106.952C274.777 107.064 274.642 107.209 274.539 107.386C274.446 107.554 274.399 107.755 274.399 107.988V113H273.279ZM282.832 113C282.44 113 282.141 112.893 281.936 112.678C281.74 112.454 281.642 112.165 281.642 111.81V106.756H280.452V105.776H281.124C281.367 105.776 281.53 105.729 281.614 105.636C281.707 105.533 281.754 105.361 281.754 105.118V103.774H282.762V105.776H284.344V106.756H282.762V112.02H284.232V113H282.832ZM288.314 113.168C287.642 113.168 287.077 113.042 286.62 112.79C286.172 112.529 285.785 112.183 285.458 111.754L286.256 111.11C286.536 111.465 286.849 111.74 287.194 111.936C287.539 112.123 287.941 112.216 288.398 112.216C288.874 112.216 289.243 112.113 289.504 111.908C289.775 111.703 289.91 111.413 289.91 111.04C289.91 110.76 289.817 110.522 289.63 110.326C289.453 110.121 289.126 109.981 288.65 109.906L288.076 109.822C287.74 109.775 287.432 109.705 287.152 109.612C286.872 109.509 286.625 109.379 286.41 109.22C286.205 109.052 286.041 108.847 285.92 108.604C285.808 108.361 285.752 108.072 285.752 107.736C285.752 107.381 285.817 107.073 285.948 106.812C286.079 106.541 286.256 106.317 286.48 106.14C286.713 105.963 286.989 105.832 287.306 105.748C287.623 105.655 287.964 105.608 288.328 105.608C288.916 105.608 289.406 105.711 289.798 105.916C290.199 106.121 290.549 106.406 290.848 106.77L290.106 107.442C289.947 107.218 289.714 107.017 289.406 106.84C289.098 106.653 288.711 106.56 288.244 106.56C287.777 106.56 287.423 106.663 287.18 106.868C286.947 107.064 286.83 107.335 286.83 107.68C286.83 108.035 286.947 108.291 287.18 108.45C287.423 108.609 287.768 108.725 288.216 108.8L288.776 108.884C289.579 109.005 290.148 109.239 290.484 109.584C290.82 109.92 290.988 110.363 290.988 110.914C290.988 111.614 290.75 112.165 290.274 112.566C289.798 112.967 289.145 113.168 288.314 113.168Z" fill="#5C5C5C"/>
<path d="M96.66 46.83C96.66 54.8542 94.5986 62.3949 90.9676 68.9561C86.3941 77.2508 79.3165 83.9718 70.7595 88.1069C64.7351 91.0248 57.9731 92.66 50.83 92.66C25.5196 92.66 5 72.1404 5 46.83C5 21.5155 25.5196 1 50.83 1C76.1404 1 96.66 21.5155 96.66 46.83Z" fill="white" stroke="#198875" stroke-width="2" stroke-miterlimit="10" stroke-linecap="round" stroke-linejoin="round"/>
<path d="M48.498 37.5681C48.1784 38.0927 47.8423 38.605 47.4899 39.1049C46.3916 40.6663 45.1252 42.1089 43.7113 43.3998C42.8835 44.1621 42.0024 44.8711 41.0721 45.5227C40.7033 45.7809 40.3303 46.0309 39.9451 46.2686L34.3306 33.6011C33.8798 32.5847 34.9166 31.5479 35.9289 31.9987L46.826 36.8263L48.498 37.5681Z" fill="white" stroke="#198875" stroke-width="2" stroke-miterlimit="10" stroke-linecap="round" stroke-linejoin="round"/>
<path d="M65.0262 61.2023L56.2233 59.8991L58.1863 68.0545L48.2769 65.0792L42.0313 50.9815L40.7936 48.1865L39.9453 46.2686C40.3305 46.0309 40.7035 45.7809 41.0723 45.5227C42.0026 44.8711 42.8837 44.1621 43.7115 43.3998C45.1254 42.1089 46.3918 40.6663 47.4901 39.1049C47.8425 38.605 48.1786 38.0927 48.4982 37.5681L50.3137 38.3714L67.4851 45.9776L70.3252 53.6166L63.6041 52.8789L65.0262 61.2023Z" fill="white" stroke="#198875" stroke-width="2" stroke-miterlimit="10" stroke-linecap="round" stroke-linejoin="round"/>
<path d="M79.169 82.8448C76.5789 84.8898 73.7594 86.6561 70.7595 88.1069L49.1047 66.452C48.8465 66.1898 48.6334 65.8865 48.4859 65.5504L48.2769 65.0792L58.1863 68.0544L56.2232 59.899L79.169 82.8448Z" fill="white" stroke="#198875" stroke-width="2" stroke-miterlimit="10" stroke-linecap="round" stroke-linejoin="round"/>
<path d="M86.4227 75.6976C84.2793 78.3409 81.845 80.7425 79.1689 82.8448L56.2231 59.8991L65.026 61.2023L63.604 52.8789L86.4227 75.6976Z" fill="white" stroke="#198875" stroke-width="2" stroke-miterlimit="10" stroke-linecap="round" stroke-linejoin="round"/>
<path d="M90.9676 68.9561C89.6521 71.3412 88.1275 73.5993 86.4227 75.6976L63.604 52.8789L70.325 53.6166L67.485 45.9775L67.8825 46.1538C68.2186 46.3013 68.5259 46.5103 68.7841 46.7726L90.9676 68.9561Z" fill="white" stroke="#198875" stroke-width="2" stroke-miterlimit="10" stroke-linecap="round" stroke-linejoin="round"/>
<path d="M240 93C265.405 93 286 72.4051 286 47C286 21.5949 265.405 1 240 1C214.595 1 194 21.5949 194 47C194 72.4051 214.595 93 240 93Z" fill="white" stroke="#198875" stroke-width="2" stroke-miterlimit="10" stroke-linecap="round" stroke-linejoin="round"/>
<path d="M239.268 36.1283C238.836 36.8934 238.367 37.6379 237.861 38.3537C236.113 40.8382 233.941 43.0265 231.419 44.7952C230.909 45.1531 230.387 45.4945 229.848 45.8195L225.352 35.6676L224.41 33.5369C224.25 33.1749 224.2 32.817 224.237 32.4756C224.233 32.4715 224.233 32.4715 224.237 32.4674C224.303 31.8093 224.694 31.2293 225.241 30.892C225.5 30.7357 225.792 30.6328 226.105 30.5999C226.109 30.5958 226.109 30.5958 226.113 30.5999C226.426 30.567 226.751 30.604 227.08 30.7357C227.113 30.7439 227.142 30.7604 227.174 30.7727L235.977 34.6681L239.268 36.1283Z" fill="white" stroke="#198875" stroke-width="2" stroke-miterlimit="10" stroke-linecap="round" stroke-linejoin="round"/>
<path d="M280.911 68.1428C280.369 69.1958 279.784 70.22 279.159 71.2278L262.883 54.9512C262.829 54.8977 262.776 54.8483 262.722 54.799C262.669 54.7496 262.615 54.7002 262.562 54.655C262.434 54.5439 262.307 54.4411 262.171 54.3506C262.08 54.2848 261.994 54.2231 261.904 54.1655C261.854 54.1326 261.805 54.1038 261.755 54.075C261.665 54.0174 261.574 53.968 261.48 53.9187C261.389 53.8693 261.295 53.8241 261.2 53.783C261.011 53.6966 260.818 53.6225 260.624 53.5567C258.625 52.8986 256.338 53.3634 254.75 54.9512C253.627 56.0741 253.068 57.5467 253.068 59.0193C253.068 59.6281 253.163 60.241 253.356 60.8251C253.418 61.0102 253.488 61.1953 253.57 61.3721C253.611 61.4626 253.652 61.5531 253.697 61.6395C253.73 61.7094 253.767 61.7794 253.808 61.8452C253.821 61.874 253.837 61.8987 253.858 61.9275C253.891 61.9933 253.932 62.0591 253.977 62.1208C254.035 62.2113 254.096 62.3059 254.166 62.3964C254.179 62.4211 254.195 62.4457 254.216 62.4663C254.281 62.5568 254.355 62.6432 254.429 62.7296C254.475 62.7872 254.524 62.8447 254.578 62.8982C254.578 62.9023 254.578 62.9023 254.582 62.9064C254.635 62.9681 254.693 63.0257 254.75 63.0833L271.414 79.7466C271.665 79.9976 271.66 80.413 271.401 80.6557C268.567 83.3006 265.4 85.5877 261.969 87.451C261.723 87.5826 261.418 87.5374 261.221 87.34L238.145 64.2639L238.005 64.124C237.955 64.0746 237.91 64.0129 237.881 63.9471C237.877 63.943 237.877 63.9389 237.873 63.9348L230.017 46.1979L229.848 45.8194C230.387 45.4945 230.909 45.1531 231.419 44.7952C233.941 43.0264 236.113 40.8381 237.861 38.3536C238.367 37.6379 238.836 36.8934 239.268 36.1283L239.835 36.3792L257.572 44.2358C257.576 44.2399 257.58 44.2399 257.584 44.244C257.626 44.2646 257.667 44.2893 257.704 44.3222C257.724 44.3345 257.745 44.351 257.761 44.3674L280.796 67.4065C280.99 67.5998 281.039 67.9001 280.911 68.1428Z" fill="white" stroke="#198875" stroke-width="2" stroke-miterlimit="10" stroke-linecap="round" stroke-linejoin="round"/>
<path d="M480.658 46.8301C480.658 54.1176 478.918 61.0004 475.832 67.0814C471.635 75.3631 464.94 82.1616 456.739 86.4909C450.497 89.7899 443.382 91.6579 435.83 91.6579C411.073 91.6579 391.002 71.587 391.002 46.8301C391.002 22.0731 411.073 2.0022 435.83 2.0022C460.591 2.0022 480.658 22.0731 480.658 46.8301Z" fill="white" stroke="#198875" stroke-width="2" stroke-miterlimit="10" stroke-linecap="round" stroke-linejoin="round"/>
<path d="M475.831 67.0813C471.634 75.363 464.94 82.1615 456.739 86.4908L446.633 76.3852L446.549 76.301C454.742 71.9637 461.433 65.1572 465.622 56.8715L475.831 67.0813Z" fill="white" stroke="#198875" stroke-width="2" stroke-miterlimit="10" stroke-linecap="round" stroke-linejoin="round"/>
<path d="M465.622 56.8714C461.433 65.1572 454.742 71.9637 446.549 76.301L446.176 75.9282L424.622 43.1301C424.414 42.661 424.518 42.1159 424.879 41.7551L425.223 41.4104C425.36 41.3422 425.496 41.2741 425.632 41.2019C425.724 41.1538 425.821 41.1017 425.913 41.0496C428.025 39.8631 429.685 38.1875 430.827 36.2393C431.004 35.9387 431.172 35.63 431.32 35.3173C431.681 35.0007 432.194 34.9205 432.639 35.1129L465.425 56.675L465.622 56.8714Z" fill="white" stroke="#198875" stroke-width="2" stroke-miterlimit="10" stroke-linecap="round" stroke-linejoin="round"/>
<path d="M430.827 36.2393C429.685 38.1875 428.025 39.8631 425.913 41.0496C425.821 41.1017 425.724 41.1538 425.632 41.2019L425.532 41.1017L423.724 39.2979L423.411 38.5843L420.645 32.351C420.645 32.339 420.637 32.331 420.637 32.3189C420.329 31.5653 421.102 30.8037 421.86 31.1404L428.093 33.9023L428.811 34.223L430.827 36.2393Z" fill="white" stroke="#198875" stroke-width="2" stroke-miterlimit="10" stroke-linecap="round" stroke-linejoin="round"/>
</svg>
