<svg width="373" height="50" viewBox="0 0 373 50" fill="none" xmlns="http://www.w3.org/2000/svg">
<path d="M354.646 46.3484C358.438 49.3109 362.249 49.9911 366.971 49.9911H373V7.03133H364.789V41.6318C363.072 41.6318 361.659 41.6766 360.053 40.7905C353.613 37.2105 345.961 17.3819 337.128 10.6158C333.332 7.70258 329.526 6.97763 324.749 7.03581H318.775V49.9955H326.994V15.3503C328.703 15.3503 330.125 15.3503 331.717 16.2453C338.171 19.776 345.809 39.6002 354.646 46.3663V46.3484ZM239.952 14.1286C244.209 14.1286 248.002 16.7286 247.957 21.2886C248.006 25.8173 244.312 28.4172 239.952 28.4172H207.712C206.871 28.4196 206.065 28.7543 205.469 29.3486C204.874 29.9428 204.537 30.7484 204.532 31.59V49.9374H212.765V37.5641C212.764 37.3049 212.813 37.048 212.911 36.8081C213.009 36.5682 213.153 36.3501 213.336 36.1663C213.518 35.9824 213.735 35.8365 213.974 35.7369C214.213 35.6374 214.47 35.5861 214.729 35.5861H239.487C248.637 35.5324 256.535 31.2678 256.535 21.2259C256.535 11.1841 248.579 7.02685 239.487 7.02685H204.532V14.1555L239.952 14.1286ZM78.9524 7H68L88.1831 28.0592L88.4827 28.3814L88.1831 28.7439L68 49.9732H78.6662L92.9773 34.0557L93.3395 33.6082L93.7107 34.0557L108.071 49.9732H118.692L98.5228 28.7707L98.1963 28.4083L98.5228 28.0861L118.692 7.02685H107.736L93.6928 22.6893L93.3216 23.1099L92.9594 22.6893L78.9524 7ZM159.595 14.1286C163.866 14.1286 167.645 16.7286 167.614 21.2886C167.654 25.8173 163.974 28.4172 159.595 28.4172H127.395C126.554 28.4196 125.748 28.7543 125.153 29.3486C124.557 29.9428 124.22 30.7484 124.216 31.59V49.9374H132.436V37.5641C132.434 37.3046 132.483 37.0473 132.582 36.8071C132.68 36.5669 132.824 36.3486 133.007 36.1647C133.19 35.9808 133.408 35.8349 133.648 35.7356C133.887 35.6363 134.144 35.5855 134.403 35.5861H159.148C168.303 35.5324 176.214 31.2678 176.214 21.2259C176.214 11.1841 168.258 7.02685 159.148 7.02685H124.211V14.1555L159.595 14.1286ZM198.123 28.4485H182.645V35.5235H198.137L198.123 28.4485ZM313.819 14.773V7.02685H282.174C280.38 7.01965 278.588 7.12277 276.807 7.33562C275.308 7.54912 273.83 7.89811 272.393 8.3783C271.137 8.80871 269.937 9.38545 268.815 10.0967C267.792 10.7489 266.862 11.5378 266.052 12.4416C265.224 13.327 264.524 14.3241 263.972 15.404C263.388 16.5872 262.918 17.8234 262.568 19.0958C262.2 20.5359 261.922 21.9976 261.736 23.4724C261.568 25.1467 261.484 26.8284 261.486 28.5112C261.486 30.3012 261.579 31.9435 261.736 33.559C261.916 35.014 262.194 36.4552 262.568 37.8728C262.909 39.1511 263.379 40.3911 263.972 41.5736C264.527 42.6676 265.227 43.6821 266.052 44.5898C266.867 45.4872 267.796 46.274 268.815 46.9302C269.941 47.62 271.141 48.1785 272.393 48.5949C273.823 49.0971 275.303 49.4437 276.807 49.6286C278.586 49.8722 280.379 49.9963 282.174 50H313.833V42.1419H282.174C281.145 42.1419 280.085 42.0883 279.209 41.9988C278.332 41.9093 277.442 41.7303 276.66 41.5736C275.96 41.3835 275.282 41.1195 274.638 40.786C274.035 40.4978 273.472 40.1306 272.966 39.6942C272.508 39.2875 272.09 38.8379 271.718 38.3517C271.349 37.8381 271.048 37.2784 270.824 36.687C270.571 36.0814 270.361 35.4595 270.193 34.8254C270.042 34.1232 269.939 33.4115 269.884 32.6953L269.831 32.1091H313.824V24.8686H269.853L269.907 24.3405C269.984 22.9436 270.302 21.5705 270.846 20.2817C271.074 19.6949 271.375 19.1387 271.74 18.626C272.12 18.1457 272.537 17.6968 272.988 17.2835C273.496 16.8515 274.059 16.4874 274.661 16.2005C275.3 15.8585 275.979 15.597 276.682 15.4219C277.501 15.2038 278.335 15.0468 279.178 14.952C280.18 14.8459 281.188 14.7951 282.196 14.7999L313.819 14.773Z" fill="white"/>
<path d="M10.657 26.1005C10.657 26.1005 7.41204 22.5712 5.19983 20.1575C2.98762 17.7234 1.8337 18.6593 1.59526 20.248C1.35938 21.9362 0.364841 29.7765 0.0409781 32.2845C-0.272684 34.6089 1.28288 33.8834 2.36922 33.1771C3.59964 32.3916 9.4687 28.43 10.5295 27.6943C11.5496 27.002 11.1377 26.6144 10.657 26.1094V26.1005Z" fill="#EAD418"/>
<path d="M16.2735 32.032C12.8054 35.9744 11.2498 37.7225 8.54924 40.6717C5.77473 43.6821 7.94232 44.2151 9.63176 44.1857C11.2498 44.1704 23.4928 44.1998 27.0795 44.2151C30.6663 44.2304 29.8668 42.6608 27.9988 40.7163C26.1449 38.8038 21.1952 33.6028 19.4739 31.7782C17.8163 30.0276 16.2735 32.0332 16.2735 32.0332V32.032Z" fill="#1E0F6B"/>
<path d="M4.94607 10.18C5.52622 9.69164 13.8434 2.27468 15.2179 1.03405C17.6201 -1.13353 19.3248 0.502355 19.1042 3.00655C18.8977 5.40747 18.2895 11.084 18.0969 12.9086C17.9031 14.76 17.7539 15.3401 14.5383 14.6847C11.2499 14.0077 6.94917 13.1904 5.76083 12.9685C3.22858 12.4585 3.91328 11.0687 4.94607 10.18Z" fill="#74AE2C"/>
<path d="M25.5539 24.1738C25.9262 23.6715 29.1164 19.6525 30.4769 17.8878C31.8374 16.1232 33.8137 17.3549 34.1669 19.1348C34.4793 20.6164 36.629 30.5057 36.972 32.0893C37.2538 33.381 35.3425 33.6028 33.9909 32.6529C32.3448 31.5054 27.9268 28.4593 26.0027 27.0784C24.8743 26.2802 24.8552 25.1365 25.5552 24.1738H25.5539Z" fill="#AB1163"/>
</svg>
