<svg width="36" height="26" viewBox="0 0 36 26" fill="none" xmlns="http://www.w3.org/2000/svg">
<path d="M35.2035 3.64352L35.2485 3.93752C34.8135 2.39402 33.639 1.20302 32.1465 0.76952L32.115 0.76202C29.3086 2.05636e-05 18.0152 2.073e-05 18.0152 2.073e-05C18.0152 2.073e-05 6.75036 -0.0149794 3.91539 0.76202C2.39441 1.20302 1.21843 2.39402 0.790932 3.90602L0.783432 3.93752C-0.265055 9.41401 -0.272555 15.9945 0.829931 21.858L0.783432 21.561C1.21843 23.1045 2.39291 24.2955 3.88539 24.729L3.91689 24.7365C6.72036 25.5 18.0167 25.5 18.0167 25.5C18.0167 25.5 29.2801 25.5 32.1165 24.7365C33.639 24.2955 34.815 23.1045 35.2425 21.5925L35.25 21.561C35.727 19.014 36 16.083 36 13.089C36 12.9795 36 12.8685 35.9985 12.7575C36 12.6555 36 12.534 36 12.4125C36 9.41701 35.727 6.48602 35.2035 3.64352ZM14.4123 18.2265V7.28701L23.8111 12.765L14.4123 18.2265Z" fill="#0D808B"/>
</svg>
